<?xml version="1.0" encoding="UTF-8" standalone="no"?>
<!-- Created with Inkscape (http://www.inkscape.org/) -->

<svg
   version="1.1"
   id="svg1"
   width="5333.3335"
   height="5333.3335"
   viewBox="0 0 5333.3335 5333.3335"
   sodipodi:docname="Blueberry.svg"
   inkscape:version="1.3.2 (091e20ef0f, 2023-11-25, custom)"
   xmlns:inkscape="http://www.inkscape.org/namespaces/inkscape"
   xmlns:sodipodi="http://sodipodi.sourceforge.net/DTD/sodipodi-0.dtd"
   xmlns="http://www.w3.org/2000/svg"
   xmlns:svg="http://www.w3.org/2000/svg">
  <defs
     id="defs1" />
  <sodipodi:namedview
     id="namedview1"
     pagecolor="#ffffff"
     bordercolor="#000000"
     borderopacity="0.25"
     inkscape:showpageshadow="2"
     inkscape:pageopacity="0.0"
     inkscape:pagecheckerboard="0"
     inkscape:deskcolor="#d1d1d1"
     inkscape:zoom="0.077827146"
     inkscape:cx="3764.7532"
     inkscape:cy="4233.7413"
     inkscape:window-width="1920"
     inkscape:window-height="1011"
     inkscape:window-x="0"
     inkscape:window-y="0"
     inkscape:window-maximized="1"
     inkscape:current-layer="g1">
    <inkscape:page
       x="0"
       y="0"
       inkscape:label="1"
       id="page1"
       width="5333.3335"
       height="5333.3335"
       margin="0"
       bleed="0" />
  </sodipodi:namedview>
  <g
     id="g1"
     inkscape:groupmode="layer"
     inkscape:label="1">
    <g
       id="group-R5">
      <path
         id="path3"
         d="m 26241.7,31555 c 6859.7,-3647 9649.8,-11814.7 6232,-18243 C 29056.1,6883.5 20724.5,4629.2 13864.6,8276.2 7004.98,11923.5 4214.85,20091.2 7632.52,26519.5 11050.3,32947.8 19381.7,35202.4 26241.7,31555"
         style="fill:#2d237c;fill-opacity:1;fill-rule:evenodd;stroke:none"
         transform="matrix(0.13333333,0,0,-0.13333333,0,5333.3333)" />
      <path
         id="path4"
         d="M 24993.2,31917 C 31333.6,28546 33795.9,20778 30493.3,14566.4 27190.8,8354.9 19373.9,6052.1 13033.7,9423 6693.52,12794 4231.17,20562.1 7533.56,26773.8 10836.3,32985.3 18653,35287.9 24993.2,31917"
         style="fill:#3f398d;fill-opacity:1;fill-rule:evenodd;stroke:none"
         transform="matrix(0.13333333,0,0,-0.13333333,0,5333.3333)" />
      <path
         id="path5"
         d="M 23192.8,31278.3 C 28340.6,28541 30677.6,22845.5 27297.7,17955.7 23917.8,13065.7 17973.2,9041.8 12825.4,11778.8 7677.55,14516 5824.94,21099.8 8687.85,26484.4 11550.9,31869.2 18045,34015.2 23192.8,31278.3"
         style="fill:#646baf;fill-opacity:1;fill-rule:evenodd;stroke:none"
         transform="matrix(0.13333333,0,0,-0.13333333,0,5333.3333)" />
      <path
         id="path6"
         d="m 17629.1,29029.4 c 2165.8,-1286.3 3388.6,-2909.4 2244.5,-5822 -1144.4,-2912.6 -4902.7,-4537.7 -7124.7,-3356.6 -2221.6,1181.3 -2930.32,4193.5 -1582.6,6728.1 1347.6,2534.6 4296.8,3736.8 6462.8,2450.5"
         style="fill:#8b90c7;fill-opacity:1;fill-rule:evenodd;stroke:none"
         transform="matrix(0.13333333,0,0,-0.13333333,0,5333.3333)" />
      <path
         id="path7"
         d="m 23192.8,31278.3 c 130.6,-69.6 259,-141.3 385.9,-214.5 -5089.5,2464.1 -11359.6,296.3 -14158.67,-4968.5 -2789.87,-5247.1 -1101.5,-11632.5 3750.17,-14488 -115.2,54.2 -230.3,110.6 -344.8,171.5 -5147.85,2737.2 -7000.46,9321 -4137.55,14705.6 2863.05,5384.8 9357.15,7530.8 14504.95,4793.9"
         style="fill:#ffffff;fill-opacity:1;fill-rule:evenodd;stroke:none"
         transform="matrix(0.13333333,0,0,-0.13333333,0,5333.3333)" />
      <path
         id="path8"
         d="m 17634.8,28469 -106.8,-2464.5 1827.6,-1678 -2193.5,-1122.2 -529.1,-2406.8 -2086.6,1342.3 -2357,-729.1 107.1,2464.9 -1827.9,1677.7 2193.8,1122.6 528.8,2406.4 2086.7,-1342.2 2356.9,728.9"
         style="fill:#2d237c;fill-opacity:1;fill-rule:evenodd;stroke:none"
         transform="matrix(0.13333333,0,0,-0.13333333,0,5333.3333)" />
    </g>
  </g>
</svg>
